<?xml version="1.0" encoding="UTF-8"?>
<svg xmlns="http://www.w3.org/2000/svg" xmlns:xlink="http://www.w3.org/1999/xlink" width="500px" height="500px" viewBox="0 0 500 500" version="1.1">
<g id="surface1">
<path style=" stroke:none;fill-rule:nonzero;fill:rgb(82.745099%,78.431374%,88.235295%);fill-opacity:1;" d="M 0 0 C 165 0 330 0 500 0 C 500 165 500 330 500 500 C 335 500 170 500 0 500 C 0 335 0 170 0 0 Z M 0 0 "/>
<path style=" stroke:none;fill-rule:nonzero;fill:rgb(99.607843%,99.607843%,99.607843%);fill-opacity:1;" d="M 244.421875 167.703125 C 244.761719 167.703125 244.761719 167.703125 245.105469 167.703125 C 250.269531 167.710938 255.441406 167.855469 260.5 169 C 260.773438 169.0625 260.773438 169.0625 261.050781 169.125 C 268.222656 170.785156 275.257812 173.699219 281.25 178 C 281.398438 178.105469 281.542969 178.210938 281.695312 178.316406 C 283.761719 179.816406 285.660156 181.484375 287.5 183.25 C 287.699219 183.4375 287.699219 183.4375 287.902344 183.632812 C 289.84375 185.480469 291.578125 187.414062 293.175781 189.5625 C 293.492188 189.988281 293.816406 190.410156 294.140625 190.832031 C 295.886719 193.148438 297.238281 195.640625 298.5 198.25 C 298.574219 198.40625 298.652344 198.558594 298.730469 198.71875 C 303.226562 208.066406 303.230469 221.234375 300.25 231 C 300.183594 231.21875 300.121094 231.441406 300.054688 231.667969 C 298.1875 237.941406 295.332031 243.527344 290.75 248.25 C 290.589844 248.414062 290.433594 248.582031 290.269531 248.75 C 287.90625 251.199219 285.53125 253.527344 282.75 255.5 C 282.585938 255.617188 282.421875 255.734375 282.25 255.855469 C 279.226562 257.996094 276.027344 259.777344 272.75 261.5 C 272.925781 261.605469 273.101562 261.710938 273.28125 261.820312 C 277.886719 264.667969 280.449219 268.582031 283 273.25 C 283.140625 273.503906 283.28125 273.757812 283.425781 274.023438 C 287.148438 280.78125 290.410156 287.742188 293.582031 294.773438 C 297.777344 305.824219 297.777344 305.824219 306.210938 313.285156 C 309.625 314.21875 313.570312 313.273438 316.59375 311.5625 C 318.320312 310.417969 319.875 309.050781 321.429688 307.6875 C 321.753906 307.398438 322.082031 307.113281 322.40625 306.828125 C 322.566406 306.6875 322.726562 306.546875 322.890625 306.402344 C 324.03125 305.414062 325.199219 304.523438 326.5 303.75 C 326.078125 311.550781 323.089844 318.335938 317.75 324 C 317.597656 324.167969 317.445312 324.339844 317.285156 324.511719 C 314.128906 327.871094 309.191406 330.988281 304.519531 331.296875 C 297.824219 331.476562 297.824219 331.476562 294.75 330 C 294.382812 329.832031 294.382812 329.832031 294.011719 329.664062 C 283.582031 324.445312 278.925781 310.507812 274.277344 300.59375 C 273.847656 299.671875 273.414062 298.753906 272.980469 297.832031 C 272.816406 297.484375 272.652344 297.136719 272.488281 296.785156 C 272.40625 296.613281 272.328125 296.441406 272.242188 296.265625 C 271.917969 295.578125 271.59375 294.886719 271.269531 294.199219 C 271.105469 293.847656 270.941406 293.5 270.777344 293.148438 C 270.324219 292.1875 269.871094 291.226562 269.421875 290.265625 C 268.921875 289.203125 268.417969 288.136719 267.917969 287.074219 C 267.726562 286.667969 267.535156 286.261719 267.34375 285.855469 C 265.054688 280.933594 265.054688 280.933594 262.25 276.296875 C 262.144531 276.140625 262.039062 275.988281 261.933594 275.828125 C 261.019531 274.496094 260.046875 273.230469 259 272 C 258.828125 271.792969 258.65625 271.585938 258.480469 271.371094 C 256.492188 269.042969 253.644531 266.359375 250.488281 265.886719 C 249.65625 265.839844 248.832031 265.828125 248 265.828125 C 247.398438 265.816406 246.792969 265.804688 246.191406 265.789062 C 245.753906 265.78125 245.753906 265.78125 245.308594 265.773438 C 240.015625 265.632812 234.730469 264.386719 230 262 C 229.839844 261.921875 229.679688 261.84375 229.515625 261.765625 C 227.789062 260.914062 226.222656 260 224.6875 258.835938 C 224.550781 258.734375 224.410156 258.628906 224.269531 258.519531 C 223.929688 258.265625 223.589844 258.007812 223.25 257.75 C 223.214844 263.859375 223.1875 269.96875 223.171875 276.078125 C 223.164062 278.914062 223.152344 281.75 223.136719 284.585938 C 223.121094 287.058594 223.113281 289.53125 223.109375 292.007812 C 223.105469 293.316406 223.101562 294.625 223.089844 295.933594 C 223.082031 297.164062 223.078125 298.398438 223.082031 299.632812 C 223.078125 300.085938 223.078125 300.535156 223.070312 300.988281 C 223.039062 303.6875 223.226562 305.664062 224.75 308 C 224.890625 308.230469 224.890625 308.230469 225.039062 308.464844 C 228.636719 313.96875 234.433594 317.464844 240.773438 318.851562 C 241.132812 318.925781 241.132812 318.925781 241.5 319 C 241.5 319.082031 241.5 319.164062 241.5 319.25 C 222.9375 319.25 204.375 319.25 185.25 319.25 C 186.082031 318.835938 186.863281 318.546875 187.746094 318.273438 C 193.375 316.523438 197.9375 313.222656 201.390625 308.421875 C 201.492188 308.28125 201.59375 308.140625 201.699219 307.996094 C 202.839844 306.347656 203.363281 305.007812 203.34375 303.011719 C 203.347656 302.820312 203.347656 302.625 203.347656 302.425781 C 203.351562 301.777344 203.347656 301.132812 203.347656 300.484375 C 203.347656 300.011719 203.347656 299.542969 203.351562 299.074219 C 203.355469 297.785156 203.355469 296.496094 203.351562 295.207031 C 203.351562 293.816406 203.355469 292.425781 203.355469 291.03125 C 203.359375 288.308594 203.359375 285.582031 203.359375 282.859375 C 203.359375 280.644531 203.359375 278.429688 203.359375 276.214844 C 203.359375 275.902344 203.359375 275.585938 203.359375 275.261719 C 203.359375 274.621094 203.363281 273.980469 203.363281 273.34375 C 203.363281 269.046875 203.367188 264.75 203.363281 260.453125 C 203.363281 260.285156 203.363281 260.117188 203.363281 259.945312 C 203.363281 258.582031 203.363281 257.214844 203.359375 255.851562 C 203.359375 250.53125 203.359375 245.207031 203.367188 239.886719 C 203.375 233.90625 203.375 227.925781 203.375 221.945312 C 203.375 218.78125 203.375 215.613281 203.378906 212.449219 C 203.382812 209.753906 203.382812 207.058594 203.378906 204.363281 C 203.375 202.988281 203.375 201.613281 203.378906 200.238281 C 203.382812 198.976562 203.382812 197.71875 203.375 196.460938 C 203.375 196.003906 203.375 195.550781 203.378906 195.09375 C 203.382812 194.472656 203.378906 193.855469 203.375 193.238281 C 203.378906 193.058594 203.378906 192.882812 203.382812 192.699219 C 203.363281 191.347656 202.992188 190.589844 202.25 189.5 C 198.953125 187.019531 193.945312 186.507812 190.015625 185.785156 C 188.414062 185.488281 186.828125 185.144531 185.25 184.75 C 185.617188 184.019531 186.089844 183.964844 186.84375 183.664062 C 187.144531 183.546875 187.445312 183.425781 187.753906 183.304688 C 188.097656 183.171875 188.4375 183.039062 188.78125 182.90625 C 189.046875 182.804688 189.046875 182.804688 189.316406 182.699219 C 197.054688 179.675781 204.894531 176.898438 212.734375 174.144531 C 213.171875 173.988281 213.609375 173.835938 214.046875 173.679688 C 216.96875 172.648438 219.914062 171.746094 222.902344 170.917969 C 223.691406 170.695312 224.476562 170.46875 225.261719 170.242188 C 231.574219 168.433594 237.863281 167.695312 244.421875 167.703125 Z M 244.421875 167.703125 "/>
<path style=" stroke:none;fill-rule:nonzero;fill:rgb(82.745099%,78.431374%,88.235295%);fill-opacity:1;" d="M 243.996094 177.914062 C 244.589844 177.921875 245.1875 177.921875 245.78125 177.917969 C 255.515625 177.9375 263.585938 181.125 270.507812 187.992188 C 273.332031 190.890625 275.339844 194.335938 277 198 C 277.070312 198.152344 277.140625 198.304688 277.210938 198.464844 C 282.382812 210.085938 282.191406 225.722656 277.726562 237.558594 C 276.472656 240.75 274.855469 243.546875 272.75 246.25 C 272.589844 246.453125 272.433594 246.660156 272.269531 246.871094 C 267.664062 252.417969 260.445312 255.179688 253.445312 255.898438 C 251.75 256.039062 250.058594 256.046875 248.359375 256.046875 C 248.046875 256.050781 247.734375 256.054688 247.414062 256.054688 C 245.621094 256.058594 243.988281 255.921875 242.25 255.5 C 241.910156 255.433594 241.574219 255.367188 241.234375 255.300781 C 235.972656 254.21875 231.351562 251.738281 227.5 248 C 227.332031 247.851562 227.164062 247.699219 226.992188 247.546875 C 224.695312 245.429688 222.824219 243.054688 222.691406 239.859375 C 222.671875 238.949219 222.683594 238.042969 222.699219 237.132812 C 222.699219 236.628906 222.699219 236.125 222.695312 235.621094 C 222.6875 234.261719 222.699219 232.902344 222.714844 231.542969 C 222.726562 230.113281 222.722656 228.6875 222.722656 227.257812 C 222.726562 224.859375 222.738281 222.460938 222.757812 220.0625 C 222.777344 217.296875 222.785156 214.535156 222.789062 211.769531 C 222.789062 208.816406 222.800781 205.859375 222.8125 202.90625 C 222.8125 202.058594 222.816406 201.210938 222.816406 200.367188 C 222.820312 199.03125 222.828125 197.695312 222.839844 196.363281 C 222.84375 195.875 222.847656 195.386719 222.847656 194.902344 C 222.851562 190.335938 223.367188 186.890625 226.554688 183.390625 C 229.242188 180.734375 232.910156 179.636719 236.5 178.75 C 236.871094 178.652344 236.871094 178.652344 237.25 178.550781 C 239.523438 177.996094 241.667969 177.890625 243.996094 177.914062 Z M 243.996094 177.914062 "/>
<path style=" stroke:none;fill-rule:nonzero;fill:rgb(99.607843%,99.607843%,99.607843%);fill-opacity:1;" d="M 244.226562 66.199219 C 244.621094 66.199219 245.015625 66.195312 245.410156 66.195312 C 246.660156 66.1875 247.90625 66.1875 249.15625 66.1875 C 249.476562 66.1875 249.476562 66.1875 249.800781 66.1875 C 256.148438 66.183594 262.433594 66.285156 268.75 67 C 269.363281 67.0625 269.980469 67.128906 270.59375 67.191406 C 272.148438 67.355469 273.699219 67.546875 275.25 67.75 C 275.546875 67.789062 275.546875 67.789062 275.851562 67.828125 C 295.082031 70.347656 313.90625 76.347656 331.289062 84.898438 C 331.957031 85.230469 332.628906 85.554688 333.296875 85.878906 C 345.320312 91.75 356.863281 99.402344 367.015625 108.125 C 367.707031 108.714844 368.414062 109.289062 369.125 109.859375 C 370.46875 110.953125 371.734375 112.125 373 113.304688 C 373.578125 113.84375 374.164062 114.363281 374.765625 114.875 C 375.777344 115.746094 376.703125 116.695312 377.640625 117.648438 C 378.347656 118.359375 379.0625 119.039062 379.828125 119.6875 C 380.628906 120.371094 381.292969 121.105469 381.972656 121.90625 C 382.660156 122.679688 383.390625 123.398438 384.125 124.125 C 385.152344 125.140625 386.148438 126.164062 387.085938 127.265625 C 387.574219 127.839844 388.085938 128.394531 388.59375 128.953125 C 389.777344 130.265625 390.890625 131.625 392 133 C 392.253906 133.308594 392.503906 133.617188 392.757812 133.921875 C 394.519531 136.066406 396.226562 138.246094 397.871094 140.484375 C 398.125 140.832031 398.378906 141.175781 398.636719 141.519531 C 400.355469 143.84375 401.992188 146.210938 403.578125 148.625 C 403.746094 148.878906 403.910156 149.128906 404.082031 149.390625 C 404.234375 149.625 404.386719 149.859375 404.542969 150.101562 C 404.75 150.414062 404.75 150.414062 404.957031 150.738281 C 405.25 151.25 405.25 151.25 405.25 151.75 C 399.3125 152.339844 399.3125 152.339844 397.6875 151.4375 C 396.808594 150.613281 396.28125 149.59375 395.761719 148.515625 C 395.351562 147.707031 394.820312 147.003906 394.28125 146.28125 C 394.078125 145.992188 393.871094 145.707031 393.667969 145.417969 C 389.707031 139.921875 385.292969 134.769531 380.75 129.75 C 380.554688 129.53125 380.355469 129.3125 380.152344 129.085938 C 378.488281 127.253906 376.773438 125.484375 375.019531 123.734375 C 374.574219 123.292969 374.132812 122.851562 373.691406 122.40625 C 372.382812 121.097656 371.078125 119.808594 369.667969 118.609375 C 369.027344 118.058594 368.414062 117.480469 367.796875 116.90625 C 366.652344 115.851562 365.484375 114.847656 364.269531 113.875 C 363.691406 113.40625 363.121094 112.933594 362.550781 112.453125 C 359.945312 110.273438 357.257812 108.230469 354.5 106.25 C 354.226562 106.054688 354.226562 106.054688 353.949219 105.851562 C 337.503906 94.050781 319.371094 85.175781 299.960938 79.460938 C 299.304688 79.265625 298.652344 79.066406 298 78.867188 C 290.988281 76.738281 283.738281 75.433594 276.507812 74.328125 C 276.027344 74.253906 275.550781 74.179688 275.074219 74.101562 C 261.886719 71.992188 248.292969 71.960938 235 73 C 234.835938 73.011719 234.667969 73.027344 234.496094 73.039062 C 226.679688 73.644531 219.011719 74.84375 211.367188 76.554688 C 210.625 76.722656 209.878906 76.882812 209.132812 77.039062 C 207.03125 77.484375 204.976562 78.027344 202.925781 78.648438 C 202.070312 78.910156 201.210938 79.148438 200.347656 79.382812 C 191.707031 81.710938 183.351562 84.949219 175.25 88.75 C 175.019531 88.859375 174.785156 88.964844 174.546875 89.078125 C 166.15625 92.984375 158.121094 97.496094 150.5 102.75 C 150.304688 102.882812 150.113281 103.015625 149.910156 103.152344 C 145.636719 106.078125 141.460938 109.160156 137.5 112.5 C 137.25 112.710938 136.996094 112.921875 136.738281 113.140625 C 136.050781 113.71875 135.367188 114.300781 134.683594 114.882812 C 134.230469 115.265625 133.78125 115.648438 133.328125 116.03125 C 131.308594 117.742188 131.308594 117.742188 129.414062 119.585938 C 129.015625 119.984375 128.601562 120.34375 128.171875 120.707031 C 126.699219 121.988281 125.332031 123.378906 123.953125 124.761719 C 123.484375 125.234375 123.015625 125.703125 122.542969 126.171875 C 121.1875 127.527344 119.84375 128.878906 118.601562 130.335938 C 118.054688 130.976562 117.480469 131.585938 116.90625 132.203125 C 115.851562 133.347656 114.847656 134.515625 113.875 135.730469 C 113.40625 136.308594 112.933594 136.878906 112.453125 137.449219 C 109.539062 140.933594 106.871094 144.582031 104.269531 148.304688 C 104.046875 148.625 103.816406 148.945312 103.585938 149.261719 C 103.234375 149.75 103.234375 149.75 102.960938 150.3125 C 102.605469 150.9375 102.328125 151.320312 101.75 151.75 C 100.507812 151.996094 99.289062 151.9375 98.03125 151.875 C 97.6875 151.863281 97.347656 151.855469 97.003906 151.847656 C 96.167969 151.824219 95.335938 151.792969 94.5 151.75 C 97.839844 146.480469 101.347656 141.371094 105.25 136.5 C 105.507812 136.175781 105.507812 136.175781 105.769531 135.84375 C 106.808594 134.53125 107.878906 133.25 108.964844 131.976562 C 109.71875 131.085938 110.457031 130.1875 111.1875 129.28125 C 111.941406 128.351562 112.722656 127.496094 113.585938 126.664062 C 114.019531 126.230469 114.414062 125.777344 114.8125 125.3125 C 115.65625 124.332031 116.566406 123.425781 117.488281 122.519531 C 118.164062 121.847656 118.804688 121.164062 119.421875 120.4375 C 120.109375 119.632812 120.851562 118.960938 121.660156 118.277344 C 122.429688 117.589844 123.148438 116.859375 123.875 116.125 C 124.886719 115.105469 125.902344 114.113281 126.996094 113.183594 C 127.621094 112.644531 128.222656 112.089844 128.828125 111.53125 C 130.179688 110.300781 131.578125 109.144531 133 108 C 133.308594 107.746094 133.613281 107.496094 133.921875 107.242188 C 136.234375 105.34375 138.589844 103.519531 141 101.75 C 141.183594 101.617188 141.363281 101.480469 141.554688 101.34375 C 144.074219 99.496094 146.625 97.699219 149.25 96 C 149.425781 95.886719 149.601562 95.773438 149.785156 95.652344 C 165.6875 85.410156 183.367188 76.886719 201.832031 72.421875 C 202.613281 72.222656 203.382812 71.992188 204.15625 71.765625 C 206.097656 71.207031 208.054688 70.78125 210.03125 70.375 C 210.398438 70.296875 210.765625 70.222656 211.132812 70.144531 C 211.851562 69.996094 212.570312 69.847656 213.289062 69.699219 C 214.078125 69.535156 214.863281 69.371094 215.652344 69.199219 C 220.773438 68.113281 225.96875 67.507812 231.171875 66.953125 C 231.367188 66.933594 231.566406 66.910156 231.769531 66.890625 C 232.347656 66.828125 232.925781 66.765625 233.503906 66.707031 C 233.667969 66.691406 233.832031 66.671875 234 66.65625 C 237.402344 66.3125 240.808594 66.207031 244.226562 66.199219 Z M 244.226562 66.199219 "/>
<path style=" stroke:none;fill-rule:nonzero;fill:rgb(99.607843%,99.607843%,99.607843%);fill-opacity:1;" d="M 94.5 348.25 C 100.664062 347.660156 100.664062 347.660156 102.324219 348.5625 C 103.210938 349.382812 103.730469 350.402344 104.242188 351.484375 C 104.648438 352.292969 105.179688 352.996094 105.71875 353.71875 C 105.921875 354.007812 106.128906 354.292969 106.332031 354.582031 C 110.292969 360.078125 114.707031 365.230469 119.25 370.25 C 119.449219 370.46875 119.648438 370.691406 119.851562 370.917969 C 121.480469 372.710938 123.160156 374.449219 124.875 376.15625 C 125.300781 376.582031 125.722656 377.007812 126.148438 377.433594 C 127.425781 378.707031 128.703125 379.964844 130.078125 381.136719 C 130.71875 381.6875 131.332031 382.265625 131.953125 382.84375 C 133.117188 383.917969 134.3125 384.933594 135.546875 385.929688 C 136.15625 386.421875 136.75 386.929688 137.34375 387.445312 C 139.632812 389.421875 142.0625 391.210938 144.5 393 C 144.800781 393.21875 144.800781 393.21875 145.105469 393.445312 C 147.609375 395.28125 150.140625 397.0625 152.75 398.75 C 152.925781 398.863281 153.097656 398.976562 153.277344 399.09375 C 168.730469 409.082031 185.496094 416.675781 203.25 421.5 C 203.554688 421.582031 203.859375 421.664062 204.171875 421.75 C 208.445312 422.894531 212.746094 423.777344 217.09375 424.578125 C 218.007812 424.75 218.914062 424.941406 219.824219 425.128906 C 238.9375 428.964844 259.320312 428.402344 278.476562 425.332031 C 279.207031 425.21875 279.9375 425.109375 280.671875 425 C 286.996094 424.042969 293.285156 422.582031 299.390625 420.6875 C 299.933594 420.519531 300.480469 420.363281 301.027344 420.210938 C 314.21875 416.535156 326.914062 410.832031 338.75 404 C 339.113281 403.792969 339.476562 403.585938 339.839844 403.378906 C 344.453125 400.722656 348.929688 397.832031 353.203125 394.65625 C 353.777344 394.230469 354.359375 393.804688 354.941406 393.382812 C 357.378906 391.613281 359.746094 389.78125 362.066406 387.859375 C 362.691406 387.34375 363.324219 386.835938 363.953125 386.328125 C 365.125 385.367188 366.25 384.359375 367.363281 383.332031 C 367.894531 382.847656 368.425781 382.375 368.96875 381.90625 C 371.460938 379.734375 373.84375 377.449219 376.175781 375.105469 C 376.597656 374.683594 377.019531 374.261719 377.445312 373.839844 C 378.714844 372.570312 379.964844 371.296875 381.128906 369.929688 C 381.722656 369.242188 382.347656 368.585938 382.96875 367.921875 C 384.070312 366.734375 385.121094 365.523438 386.136719 364.261719 C 386.601562 363.6875 387.070312 363.117188 387.542969 362.550781 C 390.460938 359.066406 393.128906 355.417969 395.730469 351.695312 C 395.953125 351.375 396.183594 351.054688 396.414062 350.738281 C 396.765625 350.25 396.765625 350.25 397.042969 349.6875 C 397.398438 349.070312 397.679688 348.679688 398.25 348.25 C 399.457031 348.003906 400.617188 348.0625 401.84375 348.125 C 402.171875 348.132812 402.496094 348.144531 402.835938 348.152344 C 403.640625 348.175781 404.445312 348.207031 405.25 348.25 C 404.925781 349.128906 404.542969 349.871094 404.023438 350.648438 C 403.878906 350.863281 403.738281 351.078125 403.589844 351.300781 C 403.4375 351.523438 403.28125 351.75 403.125 351.984375 C 402.96875 352.21875 402.808594 352.453125 402.648438 352.695312 C 400.683594 355.609375 398.636719 358.457031 396.5 361.25 C 396.304688 361.503906 396.304688 361.503906 396.109375 361.761719 C 394.261719 364.179688 392.367188 366.539062 390.363281 368.832031 C 390 369.253906 389.636719 369.675781 389.277344 370.101562 C 386.808594 373.027344 384.207031 375.828125 381.476562 378.515625 C 380.996094 379.003906 380.554688 379.507812 380.109375 380.03125 C 379.40625 380.851562 378.648438 381.539062 377.824219 382.238281 C 377.101562 382.878906 376.429688 383.5625 375.75 384.25 C 374.777344 385.230469 373.796875 386.179688 372.746094 387.074219 C 372.167969 387.570312 371.609375 388.082031 371.046875 388.59375 C 369.980469 389.554688 368.886719 390.472656 367.769531 391.375 C 367.214844 391.824219 366.664062 392.277344 366.113281 392.734375 C 347.332031 408.207031 325.300781 419.734375 298.152344 427.574219 C 297.554688 427.734375 296.957031 427.90625 296.363281 428.078125 C 287.441406 430.695312 277.992188 432.121094 268.75 433 C 268.382812 433.035156 268.382812 433.035156 268.003906 433.074219 C 267.265625 433.144531 266.523438 433.214844 265.78125 433.28125 C 265.46875 433.308594 265.46875 433.308594 265.152344 433.339844 C 264.433594 433.398438 263.71875 433.449219 263 433.5 C 262.679688 433.523438 262.359375 433.542969 262.027344 433.566406 C 258.117188 433.8125 254.203125 433.796875 250.289062 433.796875 C 249.496094 433.796875 248.699219 433.796875 247.90625 433.800781 C 243.078125 433.820312 238.308594 433.726562 233.5 433.25 C 233.066406 433.210938 232.632812 433.167969 232.195312 433.128906 C 231.222656 433.035156 230.25 432.933594 229.277344 432.828125 C 228.710938 432.765625 228.140625 432.707031 227.574219 432.648438 C 225.417969 432.417969 223.304688 432.097656 221.175781 431.675781 C 220.363281 431.519531 219.550781 431.390625 218.726562 431.273438 C 198.824219 428.289062 178.820312 421.265625 157.714844 409.171875 C 156.925781 408.707031 156.128906 408.261719 155.332031 407.816406 C 153.296875 406.664062 151.359375 405.367188 149.421875 404.0625 C 149.054688 403.816406 148.6875 403.570312 148.320312 403.324219 C 142.832031 399.636719 137.597656 395.710938 132.5 391.5 C 132.355469 391.382812 132.210938 391.261719 132.0625 391.140625 C 130.234375 389.621094 128.46875 388.046875 126.730469 386.425781 C 126.160156 385.898438 125.589844 385.390625 125 384.890625 C 123.921875 383.960938 122.929688 382.945312 121.9375 381.925781 C 121.296875 381.277344 120.65625 380.65625 119.949219 380.078125 C 119.386719 379.613281 118.941406 379.1875 118.484375 378.625 C 117.660156 377.65625 116.777344 376.765625 115.875 375.875 C 114.847656 374.859375 113.851562 373.835938 112.914062 372.734375 C 112.425781 372.160156 111.914062 371.605469 111.40625 371.046875 C 110.222656 369.734375 109.109375 368.375 108 367 C 107.746094 366.691406 107.496094 366.382812 107.242188 366.078125 C 105.34375 363.765625 103.519531 361.410156 101.75 359 C 101.625 358.828125 101.496094 358.660156 101.367188 358.484375 C 99.613281 356.109375 97.9375 353.6875 96.296875 351.234375 C 96.117188 350.96875 95.941406 350.703125 95.757812 350.425781 C 94.5 348.53125 94.5 348.53125 94.5 348.25 Z M 94.5 348.25 "/>
</g>
</svg>
